<?xml version="1.0" encoding="utf-8"?>
<!-- Generator: Adobe Illustrator 27.2.0, SVG Export Plug-In . SVG Version: 6.00 Build 0)  -->
<svg version="1.1" id="Capa_1" xmlns:ev="http://www.w3.org/2001/xml-events"
	 xmlns="http://www.w3.org/2000/svg" xmlns:xlink="http://www.w3.org/1999/xlink" x="0px" y="0px" viewBox="0 0 394 190"
	 style="enable-background:new 0 0 394 190;" xml:space="preserve">
<style type="text/css">
	.st0{fill:#FFFFFF;stroke:#CEA24F;}
</style>
<path class="st0" d="M212,166l-1,1v1l-1,1v1l1-1h1l2-2h1l1-1H212z"/>
<path class="st0" d="M205,165v7l1-1v-2l1-1v-1l1-1v-1H205z"/>
<path class="st0" d="M199,165v1l1,1v1l1,1v2v-1l1-1v-2l-1-1v-1H199z"/>
<path class="st0" d="M192,165l-1,1h-1l1,1h1l2,2h1l1,1h1v-1l-1-1v-1l-2-2H192z"/>
<path class="st0" d="M233,154l-1,1v1l2-2H233z"/>
<path class="st0" d="M218,151l-1,1v2l-1,1v1l-1,1v2l-1,1v2h2l1,1h5l3-3v-1l2-2v-1l2-2v-1l-1-1h-5l-1-1H218z"/>
<path class="st0" d="M205,150v10l1,1h2l1,1l2-2v-2l1-1v-2l1-1v-1l1-1v-2H205z"/>
<path class="st0" d="M194,150v1l1,1v2l1,1v2l1,1v2l1,1h3v-11H194z"/>
<path class="st0" d="M189,150l-1,1h-8l-1,1h-5v3l2,2h1l2,2h1l3,3h1l1,1h5l1-1h2l1-1v-1l-1-1v-2l-1-1v-2l-1-1v-2h-1L189,150z"/>
<path class="st0" d="M243,132v1l-1,1v1l-1,1v2l-1,1v1l-1,1v1l-1,1v1l-1,1v2l-1,1v1l-1,1h4l1-1h1l4-4h1l5-5h1l4-4v-1l1-1v-1h-7l-1-1
	H243z"/>
<path class="st0" d="M158,131l-1,1h-5l-1,1h-2l10,10h1l6,6h1l1,1v-2l-1-1v-2l-1-1v-2l-1-1v-1l-1-1v-2l-1-1v-2l-1-1v-1l-1-1H158z"/>
<path class="st0" d="M225,130l-1,1h-1v2l-1,1v3l-1,1v3l-1,1v3l-1,1v1l1,1h6l1,1h5v-1l1-1v-1l1-1v-2l1-1v-1l1-1v-1l1-1v-1l1-1v-1l1-1
	v-1l1-1h-1l-1-1h-11l-1-1H225z"/>
<path class="st0" d="M206,129l-1,1v16h2l1,1h6l2-2v-2l1-1v-3l1-1v-2l1-1v-3l1-1v-1h-9l-1-1H206z"/>
<path class="st0" d="M189,129v2l1,1v4l1,1v3l1,1v3l1,1v1h8v-16l-1-1H189z"/>
<path class="st0" d="M173,129l-1,1h-7v1l1,1v2l1,1v2l1,1v2l1,1v2l1,1v2l1,1v1l1,1h3l1-1h7l1-1h5v-3l-1-1v-4l-1-1v-3l-1-1v-3l-1-1v-1
	H173z"/>
<path class="st0" d="M269,114l-2,2v2l-1,1v3l-1,1v2l-1,1v2l-1,1l4-4v-1l4-4v-1l4-4v-1H269z"/>
<path class="st0" d="M248,113l-1,1v3l-1,1v4l-1,1v4l-1,1h1l1,1h9l1,1h3v-1l1-1v-2l1-1v-2l1-1v-1l1-1v-2l1-1v-2l1-1h-3l-1-1H248z"/>
<path class="st0" d="M136,113l-1,1h-2l1,1v1l3,3v1l3,3v1l1,1v-2l-1-1v-3l-1-1v-4l-1-1H136z"/>
<path class="st0" d="M226,112v4l-1,1v6l-1,1v2l1,1h10l1,1h4l1-1v-3l1-1v-3l1-1v-3l1-1v-2h-5l-1-1H226z"/>
<path class="st0" d="M205,112v13l1,1h14v-1l1-1v-6l1-1v-5H205z"/>
<path class="st0" d="M186,112v1l1,1v6l1,1v4h2l1,1h9l1-1v-13H186z"/>
<path class="st0" d="M161,112v1l1,1v4l1,1v3l1,1v3h1l1,1l1-1h14l1-1h2v-7l-1-1v-4l-1-1H161z"/>
<path class="st0" d="M146,112l-1,1h-3v2l1,1v3l1,1v3l1,1v3l1,1v2h3l1-1h3l1-1h5l1-1v-4l-1-1v-4l-1-1v-4l-1-1H146z"/>
<path class="st0" d="M249,96v7l-1,1v5h5l1,1h10l1-1v-2l1-1V96H249z"/>
<path class="st0" d="M227,96v10l-1,1l1,1h2l1,1h14v-1l1-1V96H227z"/>
<path class="st0" d="M205,96v12h17l1-1V96H205z"/>
<path class="st0" d="M185,96v7l1,1v4h15V96H185z"/>
<path class="st0" d="M160,96v9l1,1v2h21V98l-1-1v-1H160z"/>
<path class="st0" d="M140,96v4l1,1v8h12l1-1h3v-9l-1-1v-2H140z"/>
<path class="st0" d="M124,96v1l1,1v2l1,1v1l1,1v1l1,1v1l1,1v1l2,2h6l1-1v-1l-1-1v-8l-1-1v-2H124z"/>
<path class="st0" d="M272,95l-1,1h-1v8l-1,1v5h4l1,1h2l1-1h1v-1l1-1v-1l1-1v-1l1-1v-2l1-1v-5h-9L272,95z"/>
<path class="st0" d="M206,76l-2,2v14h18l1-1v-6l-1-1v-7l-1-1H206z"/>
<path class="st0" d="M186,76l-1,1v15h15l1-1V77l-1-1H186z"/>
<path class="st0" d="M162,76l-1,1v5l-1,1v8l1,1h20V77l-1-1H162z"/>
<path class="st0" d="M142,76l-1,1v6l-1,1v7l1,1h15v-5l1-1v-9l-1-1H142z"/>
<path class="st0" d="M249,75l-1,1v5l1,1v10h17V81l-1-1v-5H249z"/>
<path class="st0" d="M240,75l-1,1h-13v10l1,1v5h18V80l-1-1v-3l-1-1H240z"/>
<path class="st0" d="M126,74l-1,1v5l-1,1v8l-1,1v2h12l1-1v-1l1-1V76h-1l-1-1h-7l-1-1H126z"/>
<path class="st0" d="M120,74v10v-2l1-1v-7H120z"/>
<path class="st0" d="M279,72l-1,1h-5l-1,1h-3v6l1,1v9l2,2h9l1-1v-2l-1-1V78l-1-1v-4L279,72z"/>
<path class="st0" d="M286,70l-1,1h-1v9l1,1v9l1,1v-1l1-1v-3l1-1v-3l1-1v-2l-1-1v-7l-1-1H286z"/>
<path class="st0" d="M187,57l-1,1v8l-1,1v5l1,1h14l1-1V62l-1-1v-4H187z"/>
<path class="st0" d="M213,56l-1,1h-8v15l1,1h16v-5l-1-1v-5l-1-1v-3l-1-1v-1H213z"/>
<path class="st0" d="M166,56l-1,1v2l-1,1v3l-1,1v3l-1,1v4l1,1h16l1-1h1v-1l1-1V57h-7l-1-1H166z"/>
<path class="st0" d="M228,55l-1,1h-5v1l1,1v3l1,1v4l1,1v5h18l1-1l-1-1v-4l-1-1v-3l-1-1v-3l-1-1v-1l-1-1H228z"/>
<path class="st0" d="M148,54l-1,1v1l-1,1v2l-1,1v1l-1,1v2l-1,1v3l-1,1v3h16v-3l1-1v-4l1-1v-4l1-1v-2l-1-1h-7l-1-1H148z"/>
<path class="st0" d="M254,52l-1,1h-5l-1,1h-3v3l1,1v4l1,1v3l1,1v3l1,1h17l-1-1v-2l-1-1v-2l-1-1v-2l-1-1v-2l-1-1v-2l-1-1v-2l-1-1H254
	z"/>
<path class="st0" d="M134,51v1l-1,1v1l-1,1v1l-1,1v1l-1,1v2l-1,1v1l-1,1v1l-1,1v2l-1,1v2h6l1,1h5v-1l1-1v-3l1-1v-3l1-1v-2l1-1v-2
	l1-1v-3h-2l-1-1h-3l-1-1H134z"/>
<path class="st0" d="M267,49l-1,1h-2l-1,1v2l1,1v3l1,1v3l1,1v3l1,1v2l1,1v1h6l1-1h3l1-1l-1-1v-2l-1-1v-1l-1-1v-1l-1-1v-2l-1-1v-1
	l-1-1v-1l-1-1v-1l-1-1v-1l-1-1H267z"/>
<path class="st0" d="M128,47l-1,1v2l-1,1v2l-1,1v2l-1,1v2l-1,1v2l-1,1v3l-1,1v2h1l1-1v-1l1-1v-1l1-1v-1l1-1v-2l1-1v-1l1-1v-2l1-1v-1
	l1-1v-1l1-1v-1l-1-1h-1L128,47z"/>
<path class="st0" d="M276,46l-1,1v2l1,1v1l1,1v2l1,1v2l1,1v1l1,1v2l1,1v1l1,1v1l1,1h3l1-1v-1l-1-1v-3l-1-1v-2l-1-1v-2l-1-1v-2l-1-1
	v-1l-1-1v-1l-2-2H276z"/>
<path class="st0" d="M212,41l-4,4v1l-1,1v1l-1,1v1l-1,1v1l-1,1h12l1-1v-2l-1-1v-2l-1-1v-2l-1-1v-1l-1-1H212z"/>
<path class="st0" d="M190,41l-1,1v1l-1,1v4l-1,1v4h13l1-1l-1-1v-1l-1-1v-1l-1-1v-1l-2-2v-1l-1-1h-1l-1-1H190z"/>
<path class="st0" d="M230,39l-1,1h-8l-1,1h-2v1l1,1v2l1,1v3l1,1v1l1,1h7l1-1h8v-2l-1-1v-1l-1-1v-2l-1-1v-1l-1-1v-1l-1-1H230z"/>
<path class="st0" d="M171,39v2l-1,1v1l-1,1v2l-1,1v1l-1,1v2l-1,1h2l1,1h14v-3l1-1v-5l1-1v-2l-1-1h-5l-1-1H171z"/>
<path class="st0" d="M243,37l-1,1h-4v2l1,1v1l1,1v2l1,1v1l1,1v1l1,1h4l1-1h6l1-1h1v-1l-1-1v-1l-1-1v-1l-2-2v-1l-3-3H243z"/>
<path class="st0" d="M254,35v1l1,1v1l1,1v1l2,2v1l1,1v1l2,2h1l1-1h3l1-1h1l-10-10H254z"/>
<path class="st0" d="M160,35l-5,5v1l-2,2v1l-1,1v1l-1,1v1l-1,1v1l1,1h7l1,1h3l1-1v-2l1-1v-1l1-1v-2l1-1v-1l1-1v-2l1-1l-1-1h-1l-1-1
	h-3l-1-1H160z"/>
<path class="st0" d="M382,34l-1,1h-2l-1,1h-3l-1,1h-3l-1,1h-2l-1,1h-3l-1,1h-2l-1,1h-3l-1,1h-3l-1,1h-2l-1,1h-3l-1,1h-3l-1,1h-2
	l-1,1h-3l-1,1h-2l-1,1h-3l-1,1h-2l-1,1h-3l-1,1h-3l-1,1h-2l-1,1h-3l-1,1h-3l-1,1h-2l-1,1h-2l-1,1h-1v4l1,1v6l1,1v13l-1,1v5l-1,1v4
	l-1,1v2l-1,1v2l-1,1v2l-1,1v1l-1,1v1l-1,1v1l-1,1v1l-1,1v1l-2,2h1l2-2h1l1-1h1l2-2h1l1-1h1l2-2h1l2-2h1l1-1h1l2-2h1l1-1h1l2-2h1l1-1
	h1l2-2h1l1-1h1l2-2h1l2-2h1l1-1h1l2-2h1l1-1h1l2-2h1l1-1h1l2-2h1l1-1h1l2-2h1l2-2h1l1-1h1l2-2h1l1-1h1l2-2h1l1-1h1l2-2h1l1-1h1l2-2
	h1l1-1h1l3-3h1l2-2h1l6-6v-1l2-2v-1l1-1v-1l1-1v-2l1-1v-4l-1-1v-1l-2-2h-1l-1-1H382z"/>
<path class="st0" d="M23,34l-1,1h-1l-2,2v2l-1,1v1l1,1v4l1,1v1l2,2v1l9,9h1l2,2h1l2,2h1l2,2h1l2,2h1l1,1h1l2,2h1l1,1h1l2,2h1l1,1h1
	l2,2h1l2,2h1l1,1h1l2,2h1l1,1h1l2,2h1l1,1h1l2,2h1l1,1h1l2,2h1l2,2h1l1,1h1l2,2h1l1,1h1l2,2h1l2,2h1l1,1h1l2,2h1l1,1h1l2,2h1l1,1h1
	l2,2h1l2,2h1l1,1h1l1,1h1l1,1l-1-1v-1l-1-1v-1l-1-1v-1l-1-1v-1l-1-1v-1l-1-1v-1l-1-1v-2l-1-1v-2l-1-1v-3l-1-1v-3l-1-1v-8l-1-1v-5
	l1-1v-9l1-1v-4l1-1h-1l-1-1h-3l-1-1h-2l-1-1h-3l-1-1h-3l-1-1h-2l-1-1h-3l-1-1h-3l-1-1h-2l-1-1h-3l-1-1h-2l-1-1h-3l-1-1h-2l-1-1h-3
	l-1-1h-3l-1-1h-2l-1-1h-3l-1-1h-2l-1-1h-3l-1-1h-2l-1-1h-3l-1-1h-3l-1-1h-2l-1-1h-3l-1-1H23z"/>
<path class="st0" d="M263,33v1l7,7v1l1,1h3l1-1h1v-1l-2-2h-1l-4-4h-1l-2-2H263z"/>
<path class="st0" d="M151,32l-13,13v1l-1,1v1h2l1,1h5l3-3v-1l1-1v-1l2-2v-1l1-1v-1l3-3v-2h-1l-1-1H151z"/>
<path class="st0" d="M226,31l-1,1h-1l-1,1h-1l-1,1h-1l-2,2h-1v1h2l1-1h8l1-1h2l-1-1v-2l-1-1H226z"/>
<path class="st0" d="M176,30l-1,1v1l-1,1v2h3l1,1h8v-2l-1-1h-1l-2-2h-2l-1-1H176z"/>
<path class="st0" d="M147,30l-1,1h-2l-2,2h-1l-1,1h-1l-8,8v1l-1,1l1,1h1l1,1l4-4v-1l11-11H147z"/>
<path class="st0" d="M247,28l3,3h3l-2-2h-1l-1-1H247z"/>
<path class="st0" d="M236,28l-1,1h-2v1l1,1v1l1,1v1h6l1-1h3v-1l-3-3h-2l-1-1H236z"/>
<path class="st0" d="M166,28l-3,3v1h2l1,1h2l1,1l1-1v-1l1-1v-1l1-1v-1H166z"/>
<path class="st0" d="M158,27l-2,2l1,1h2l2-2v-1H158z"/>
</svg>
