<?xml version="1.0" encoding="utf-8"?>
<!-- Generator: Adobe Illustrator 27.2.0, SVG Export Plug-In . SVG Version: 6.00 Build 0)  -->
<svg version="1.1" id="Capa_1" xmlns:ev="http://www.w3.org/2001/xml-events"
	 xmlns="http://www.w3.org/2000/svg" xmlns:xlink="http://www.w3.org/1999/xlink" x="0px" y="0px" viewBox="0 0 394 190"
	 style="enable-background:new 0 0 394 190;" xml:space="preserve">
<style type="text/css">
	.st0{fill:#FFFFFF;stroke:#CEA24F;}
</style>
<path class="st0" d="M206.7,169.4l-1,1v1l-1,1v1l1-1h1l2-2.1h1l1-1H206.7z"/>
<path class="st0" d="M199.6,168.3v7.3l1-1v-2.1l1-1v-1l1-1v-1H199.6z"/>
<path class="st0" d="M193.5,168.3v1l1,1v1l1,1v2.1v-1l1-1v-2.1l-1-1v-1H193.5z"/>
<path class="st0" d="M186.4,168.3l-1,1h-1l1,1h1l2,2.1h1l1,1h1v-1l-1-1v-1l-2-2.1H186.4z"/>
<path class="st0" d="M228,156.9l-1,1v1l2-2.1H228z"/>
<path class="st0" d="M212.8,153.8l-1,1v2.1l-1,1v1l-1,1v2.1l-1,1v2.1h2l1,1h5.1l3-3.1v-1l2-2.1v-1l2-2.1v-1l-1-1h-5.1l-1-1H212.8z"
	/>
<path class="st0" d="M199.6,152.8v10.4l1,1h2l1,1l2-2.1v-2.1l1-1V158l1-1v-1l1-1v-2.1H199.6z"/>
<path class="st0" d="M188.5,152.8v1l1,1v2.1l1,1v2.1l1,1v2.1l1,1h3v-11.4H188.5z"/>
<path class="st0" d="M183.4,152.8l-1,1h-8.1l-1,1h-5.1v3.1l2,2.1h1l2,2.1h1l3,3.1h1l1,1h5.1l1-1h2l1-1v-1l-1-1V160l-1-1v-2.1l-1-1
	v-2.1h-1L183.4,152.8z"/>
<path class="st0" d="M238.1,134.1v1l-1,1v1l-1,1v2.1l-1,1v1l-1,1v1l-1,1v1l-1,1v2.1l-1,1v1l-1,1h4.1l1-1h1l4.1-4.1h1l5.1-5.2h1
	l4.1-4.1v-1l1-1v-1h-7.1l-1-1H238.1z"/>
<path class="st0" d="M152,133.1l-1,1h-5.1l-1,1h-2l10.1,10.4h1l6.1,6.2h1l1,1v-2.1l-1-1v-2.1l-1-1v-2.1l-1-1v-1l-1-1v-2.1l-1-1v-2.1
	l-1-1v-1l-1-1H152z"/>
<path class="st0" d="M219.9,132l-1,1h-1v2.1l-1,1v3.1l-1,1v3.1l-1,1v3.1l-1,1v1l1,1h6.1l1,1h5.1v-1l1-1v-1l1-1v-2.1l1-1v-1l1-1v-1
	l1-1v-1l1-1v-1l1-1v-1l1-1h-1l-1-1h-11.1l-1-1H219.9z"/>
<path class="st0" d="M200.6,131l-1,1v16.6h2l1,1h6.1l2-2.1v-2.1l1-1v-3.1l1-1v-2.1l1-1v-3.1l1-1v-1h-9.1l-1-1H200.6z"/>
<path class="st0" d="M183.4,131v2.1l1,1v4.1l1,1v3.1l1,1v3.1l1,1v1h8.1V132l-1-1H183.4z"/>
<path class="st0" d="M167.2,131l-1,1h-7.1v1l1,1v2.1l1,1v2.1l1,1v2.1l1,1v2.1l1,1v2.1l1,1v1l1,1h3l1-1h7.1l1-1h5.1v-3.1l-1-1v-4.1
	l-1-1v-3.1l-1-1v-3.1l-1-1v-1H167.2z"/>
<path class="st0" d="M264.4,115.5l-2,2.1v2.1l-1,1v3.1l-1,1v2.1l-1,1v2.1l-1,1l4.1-4.1v-1l4.1-4.1v-1l4.1-4.1v-1H264.4z"/>
<path class="st0" d="M243.2,114.4l-1,1v3.1l-1,1v4.1l-1,1v4.1l-1,1h1l1,1h9.1l1,1h3v-1l1-1v-2.1l1-1v-2.1l1-1v-1l1-1v-2.1l1-1v-2.1
	l1-1h-3l-1-1H243.2z"/>
<path class="st0" d="M129.7,114.4l-1,1h-2l1,1v1l3,3.1v1l3,3.1v1l1,1v-2.1l-1-1v-3.1l-1-1v-4.1l-1-1H129.7z"/>
<path class="st0" d="M220.9,113.4v4.1l-1,1v6.2l-1,1v2.1l1,1H230l1,1h4.1l1-1v-3.1l1-1v-3.1l1-1v-3.1l1-1v-2.1H234l-1-1H220.9z"/>
<path class="st0" d="M199.6,113.4v13.5l1,1h14.2v-1l1-1v-6.2l1-1v-5.2H199.6z"/>
<path class="st0" d="M180.3,113.4v1l1,1v6.2l1,1v4.1h2l1,1h9.1l1-1v-13.5H180.3z"/>
<path class="st0" d="M155,113.4v1l1,1v4.1l1,1v3.1l1,1v3.1h1l1,1l1-1h14.2l1-1h2v-7.3l-1-1v-4.1l-1-1H155z"/>
<path class="st0" d="M139.8,113.4l-1,1h-3v2.1l1,1v3.1l1,1v3.1l1,1v3.1l1,1v2.1h3l1-1h3l1-1h5.1l1-1v-4.1l-1-1v-4.1l-1-1v-4.1l-1-1
	H139.8z"/>
<path class="st0" d="M244.2,96.8v7.3l-1,1v5.2h5.1l1,1h10.1l1-1v-2.1l1-1V96.8H244.2z"/>
<path class="st0" d="M221.9,96.8v10.4l-1,1l1,1h2l1,1h14.2v-1l1-1V96.8H221.9z"/>
<path class="st0" d="M199.6,96.8v12.4h17.2l1-1V96.8H199.6z"/>
<path class="st0" d="M179.3,96.8v7.3l1,1v4.1h15.2V96.8H179.3z"/>
<path class="st0" d="M154,96.8v9.3l1,1v2.1h21.3V98.9l-1-1v-1H154z"/>
<path class="st0" d="M133.7,96.8v4.1l1,1v8.3h12.2l1-1h3v-9.3l-1-1v-2.1H133.7z"/>
<path class="st0" d="M117.5,96.8v1l1,1v2.1l1,1v1l1,1v1l1,1v1l1,1v1l2,2.1h6.1l1-1v-1l-1-1v-8.3l-1-1v-2.1H117.5z"/>
<path class="st0" d="M267.5,95.8l-1,1h-1v8.3l-1,1v5.2h4.1l1,1h2l1-1h1v-1l1-1v-1l1-1v-1l1-1V103l1-1v-5.2h-9.1L267.5,95.8z"/>
<path class="st0" d="M200.6,76.1l-2,2.1v14.5h18.2l1-1v-6.2l-1-1v-7.3l-1-1H200.6z"/>
<path class="st0" d="M180.3,76.1l-1,1v15.5h15.2l1-1V77.1l-1-1H180.3z"/>
<path class="st0" d="M156,76.1l-1,1v5.2l-1,1v8.3l1,1h20.3V77.1l-1-1H156z"/>
<path class="st0" d="M135.8,76.1l-1,1v6.2l-1,1v7.3l1,1H150v-5.2l1-1v-9.3l-1-1H135.8z"/>
<path class="st0" d="M244.2,75l-1,1v5.2l1,1v10.4h17.2V81.3l-1-1V75H244.2z"/>
<path class="st0" d="M235.1,75l-1,1h-13.2v10.4l1,1v5.2h18.2V80.2l-1-1v-3.1l-1-1H235.1z"/>
<path class="st0" d="M119.6,74l-1,1v5.2l-1,1v8.3l-1,1v2.1h12.2l1-1v-1l1-1V76.1h-1l-1-1h-7.1l-1-1H119.6z"/>
<path class="st0" d="M113.5,74v10.4v-2.1l1-1V74H113.5z"/>
<path class="st0" d="M274.6,71.9l-1,1h-5.1l-1,1h-3v6.2l1,1v9.3l2,2.1h9.1l1-1v-2.1l-1-1V78.1l-1-1V73L274.6,71.9z"/>
<path class="st0" d="M281.7,69.9l-1,1h-1v9.3l1,1v9.3l1,1v-1l1-1v-3.1l1-1v-3.1l1-1v-2.1l-1-1v-7.3l-1-1H281.7z"/>
<path class="st0" d="M181.4,56.4l-1,1v8.3l-1,1v5.2l1,1h14.2l1-1V61.6l-1-1v-4.1H181.4z"/>
<path class="st0" d="M207.7,55.3l-1,1h-8.1v15.5l1,1h16.2v-5.2l-1-1v-5.2l-1-1v-3.1l-1-1v-1H207.7z"/>
<path class="st0" d="M160.1,55.3l-1,1v2.1l-1,1v3.1l-1,1v3.1l-1,1v4.1l1,1h16.2l1-1h1v-1l1-1V56.4h-7.1l-1-1H160.1z"/>
<path class="st0" d="M222.9,54.3l-1,1h-5.1v1l1,1v3.1l1,1v4.1l1,1v5.2h18.2l1-1l-1-1v-4.1l-1-1v-3.1l-1-1v-3.1l-1-1v-1l-1-1H222.9z"
	/>
<path class="st0" d="M141.8,53.3l-1,1v1l-1,1v2.1l-1,1v1l-1,1v2.1l-1,1v3.1l-1,1v3.1H152v-3.1l1-1v-4.1l1-1v-4.1l1-1v-2.1l-1-1h-7.1
	l-1-1H141.8z"/>
<path class="st0" d="M249.2,51.2l-1,1h-5.1l-1,1h-3v3.1l1,1v4.1l1,1v3.1l1,1v3.1l1,1h17.2l-1-1v-2.1l-1-1v-2.1l-1-1v-2.1l-1-1v-2.1
	l-1-1v-2.1l-1-1v-2.1l-1-1H249.2z"/>
<path class="st0" d="M127.7,50.2v1l-1,1v1l-1,1v1l-1,1v1l-1,1v2.1l-1,1v1l-1,1v1l-1,1v2.1l-1,1v2.1h6.1l1,1h5.1v-1l1-1v-3.1l1-1
	v-3.1l1-1v-2.1l1-1v-2.1l1-1v-3.1h-2l-1-1h-3l-1-1H127.7z"/>
<path class="st0" d="M262.4,48.1l-1,1h-2l-1,1v2.1l1,1v3.1l1,1v3.1l1,1v3.1l1,1v2.1l1,1v1h6.1l1-1h3l1-1l-1-1v-2.1l-1-1v-1l-1-1v-1
	l-1-1v-2.1l-1-1v-1l-1-1v-1l-1-1v-1l-1-1v-1l-1-1H262.4z"/>
<path class="st0" d="M121.6,46l-1,1v2.1l-1,1v2.1l-1,1v2.1l-1,1v2.1l-1,1v2.1l-1,1v3.1l-1,1v2.1h1l1-1v-1l1-1v-1l1-1v-1l1-1v-2.1
	l1-1v-1l1-1v-2.1l1-1v-1l1-1v-1l1-1v-1l-1-1h-1L121.6,46z"/>
<path class="st0" d="M271.5,45l-1,1v2.1l1,1v1l1,1v2.1l1,1v2.1l1,1v1l1,1v2.1l1,1v1l1,1v1l1,1h3l1-1v-1l-1-1v-3.1l-1-1v-2.1l-1-1
	v-2.1l-1-1v-2.1l-1-1v-1l-1-1v-1l-2-2.1H271.5z"/>
<path class="st0" d="M206.7,39.8l-4.1,4.1v1l-1,1v1l-1,1v1l-1,1v1l-1,1h12.2l1-1v-2.1l-1-1V46l-1-1v-2.1l-1-1v-1l-1-1H206.7z"/>
<path class="st0" d="M184.4,39.8l-1,1v1l-1,1v4.1l-1,1v4.1h13.2l1-1l-1-1v-1l-1-1v-1l-1-1v-1l-2-2.1v-1l-1-1h-1l-1-1H184.4z"/>
<path class="st0" d="M224.9,37.7l-1,1h-8.1l-1,1h-2v1l1,1v2.1l1,1v3.1l1,1v1l1,1h7.1l1-1h8.1v-2.1l-1-1v-1l-1-1v-2.1l-1-1v-1l-1-1
	v-1l-1-1H224.9z"/>
<path class="st0" d="M165.1,37.7v2.1l-1,1v1l-1,1V45l-1,1v1l-1,1v2.1l-1,1h2l1,1h14.2v-3.1l1-1v-5.2l1-1v-2.1l-1-1h-5.1l-1-1H165.1z
	"/>
<path class="st0" d="M238.1,35.6l-1,1H233v2.1l1,1v1l1,1v2.1l1,1v1l1,1v1l1,1h4.1l1-1h6.1l1-1h1v-1l-1-1v-1l-1-1v-1l-2-2.1v-1
	l-3-3.1H238.1z"/>
<path class="st0" d="M249.2,33.6v1l1,1v1l1,1v1l2,2.1v1l1,1v1l2,2.1h1l1-1h3l1-1h1l-10.1-10.4H249.2z"/>
<path class="st0" d="M154,33.6l-5.1,5.2v1l-2,2.1v1l-1,1v1l-1,1v1l-1,1v1l1,1h7.1l1,1h3l1-1v-2.1l1-1v-1l1-1v-2.1l1-1v-1l1-1v-2.1
	l1-1l-1-1h-1l-1-1h-3l-1-1H154z"/>
<path class="st0" d="M378.9,32.5l-1,1h-2l-1,1h-3l-1,1h-3l-1,1h-2l-1,1h-3l-1,1h-2l-1,1h-3l-1,1h-3l-1,1h-2l-1,1h-3l-1,1h-3l-1,1h-2
	l-1,1h-3l-1,1h-2l-1,1h-3l-1,1h-2l-1,1h-3l-1,1h-3l-1,1h-2l-1,1h-3l-1,1h-3l-1,1h-2l-1,1h-2l-1,1h-1v4.1l1,1v6.2l1,1v13.5l-1,1v5.2
	l-1,1v4.1l-1,1v2.1l-1,1v2.1l-1,1v2.1l-1,1v1l-1,1v1l-1,1v1l-1,1v1l-1,1v1l-2,2.1h1l2-2.1h1l1-1h1l2-2.1h1l1-1h1l2-2.1h1l2-2.1h1
	l1-1h1l2-2.1h1l1-1h1l2-2.1h1l1-1h1l2-2.1h1l1-1h1l2-2.1h1l2-2.1h1l1-1h1l2-2.1h1l1-1h1l2-2.1h1l1-1h1l2-2.1h1l1-1h1l2-2.1h1l2-2.1
	h1l1-1h1l2-2.1h1l1-1h1l2-2.1h1l1-1h1l2-2.1h1l1-1h1l2-2.1h1l1-1h1l3-3.1h1l2-2.1h1l6.1-6.2v-1l2-2.1v-1l1-1v-1l1-1v-2.1l1-1v-4.1
	l-1-1v-1l-2-2.1h-1l-1-1H378.9z"/>
<path class="st0" d="M15.2,32.5l-1,1h-1l-2,2.1v2.1l-1,1v1l1,1V45l1,1v1l2,2.1v1l9.1,9.3h1l2,2.1h1l2,2.1h1l2,2.1h1l2,2.1h1l1,1h1
	l2,2.1h1l1,1h1l2,2.1h1l1,1h1l2,2.1h1l2,2.1h1l1,1h1l2,2.1h1l1,1h1l2,2.1h1l1,1h1l2,2.1h1l1,1h1l2,2.1h1l2,2.1h1l1,1h1l2,2.1h1l1,1
	h1l2,2.1h1l2,2.1h1l1,1h1l2,2.1h1l1,1h1l2,2.1h1l1,1h1l2,2.1h1l2,2.1h1l1,1h1l1,1h1l1,1l-1-1v-1l-1-1v-1l-1-1v-1l-1-1v-1l-1-1v-1
	l-1-1v-1l-1-1v-2.1l-1-1v-2.1l-1-1v-3.1l-1-1v-3.1l-1-1v-8.3l-1-1V74l1-1v-9.3l1-1v-4.1l1-1h-1l-1-1h-3l-1-1h-2l-1-1h-3l-1-1h-3
	l-1-1h-2l-1-1h-3l-1-1h-3l-1-1h-2l-1-1h-3l-1-1h-2l-1-1h-3l-1-1h-2l-1-1h-3l-1-1h-3l-1-1h-2l-1-1h-3l-1-1h-2l-1-1h-3l-1-1h-2l-1-1
	h-3l-1-1h-3l-1-1h-2l-1-1h-3l-1-1H15.2z"/>
<path class="st0" d="M258.4,31.5v1l7.1,7.3v1l1,1h3l1-1h1v-1l-2-2.1h-1l-4.1-4.1h-1l-2-2.1H258.4z"/>
<path class="st0" d="M144.9,30.5l-13.2,13.5v1l-1,1v1h2l1,1h5.1l3-3.1v-1l1-1v-1l2-2.1v-1l1-1v-1l3-3.1v-2.1h-1l-1-1H144.9z"/>
<path class="st0" d="M220.9,29.4l-1,1h-1l-1,1h-1l-1,1h-1l-2,2.1h-1v1h2l1-1h8.1l1-1h2l-1-1v-2.1l-1-1H220.9z"/>
<path class="st0" d="M170.2,28.4l-1,1v1l-1,1v2.1h3l1,1h8.1v-2.1l-1-1h-1l-2-2.1h-2l-1-1H170.2z"/>
<path class="st0" d="M140.8,28.4l-1,1h-2l-2,2.1h-1l-1,1h-1l-8.1,8.3v1l-1,1l1,1h1l1,1l4.1-4.1v-1l11.1-11.4H140.8z"/>
<path class="st0" d="M242.1,26.3l3,3.1h3l-2-2.1h-1l-1-1H242.1z"/>
<path class="st0" d="M231,26.3l-1,1h-2v1l1,1v1l1,1v1h6.1l1-1h3v-1l-3-3.1h-2l-1-1H231z"/>
<path class="st0" d="M160.1,26.3l-3,3.1v1h2l1,1h2l1,1l1-1v-1l1-1v-1l1-1v-1H160.1z"/>
<path class="st0" d="M152,25.3l-2,2.1l1,1h2l2-2.1v-1H152z"/>
</svg>
