<svg width="23" height="24" viewBox="0 0 23 24" fill="none" xmlns="http://www.w3.org/2000/svg">
<g id="People" clip-path="url(#clip0_147_884)">
<path id="Vector" d="M11.2941 10.5C10.2957 10.5 9.3381 10.1049 8.63208 9.40165C7.92606 8.69839 7.52942 7.74456 7.52942 6.75C7.52942 5.75544 7.92606 4.80161 8.63208 4.09835C9.3381 3.39509 10.2957 3 11.2941 3C12.2926 3 13.2502 3.39509 13.9562 4.09835C14.6622 4.80161 15.0588 5.75544 15.0588 6.75C15.0588 7.74456 14.6622 8.69839 13.9562 9.40165C13.2502 10.1049 12.2926 10.5 11.2941 10.5ZM11.2941 4.5C10.0442 4.5 9.0353 5.505 9.0353 6.75C9.0353 7.995 10.0442 9 11.2941 9C12.544 9 13.5529 7.995 13.5529 6.75C13.5529 5.505 12.544 4.5 11.2941 4.5Z" fill="#F3F3F3"/>
<path id="Vector_2" d="M20.3294 16.5C19.9078 16.5 19.5765 16.17 19.5765 15.75C19.5765 15.33 19.9078 15 20.3294 15C20.7511 15 21.0824 14.67 21.0824 14.25C21.0824 13.2554 20.6857 12.3016 19.9797 11.5983C19.2737 10.8951 18.3161 10.5 17.3176 10.5H15.8118C15.3901 10.5 15.0588 10.17 15.0588 9.75C15.0588 9.33 15.3901 9 15.8118 9C17.0616 9 18.0706 7.995 18.0706 6.75C18.0706 5.505 17.0616 4.5 15.8118 4.5C15.3901 4.5 15.0588 4.17 15.0588 3.75C15.0588 3.33 15.3901 3 15.8118 3C16.8102 3 17.7678 3.39509 18.4738 4.09835C19.1798 4.80161 19.5765 5.75544 19.5765 6.75C19.5765 7.68 19.2452 8.52 18.6729 9.18C20.9167 9.78 22.5882 11.82 22.5882 14.25C22.5882 15.495 21.5793 16.5 20.3294 16.5ZM2.25882 16.5C1.00894 16.5 0 15.495 0 14.25C0 11.82 1.65647 9.78 3.91529 9.18C3.35812 8.52 3.01176 7.68 3.01176 6.75C3.01176 5.75544 3.4084 4.80161 4.11442 4.09835C4.82044 3.39509 5.77801 3 6.77647 3C7.19812 3 7.52941 3.33 7.52941 3.75C7.52941 4.17 7.19812 4.5 6.77647 4.5C5.52659 4.5 4.51765 5.505 4.51765 6.75C4.51765 7.995 5.52659 9 6.77647 9C7.19812 9 7.52941 9.33 7.52941 9.75C7.52941 10.17 7.19812 10.5 6.77647 10.5H5.27059C4.27213 10.5 3.31456 10.8951 2.60854 11.5983C1.90252 12.3016 1.50588 13.2554 1.50588 14.25C1.50588 14.67 1.83718 15 2.25882 15C2.68047 15 3.01176 15.33 3.01176 15.75C3.01176 16.17 2.68047 16.5 2.25882 16.5ZM15.8118 21H6.77647C5.52659 21 4.51765 19.995 4.51765 18.75V17.25C4.51765 14.355 6.88188 12 9.78824 12H12.8C15.7064 12 18.0706 14.355 18.0706 17.25V18.75C18.0706 19.995 17.0616 21 15.8118 21ZM9.78824 13.5C8.78977 13.5 7.83221 13.8951 7.12619 14.5983C6.42017 15.3016 6.02353 16.2554 6.02353 17.25V18.75C6.02353 19.17 6.35482 19.5 6.77647 19.5H15.8118C16.2334 19.5 16.5647 19.17 16.5647 18.75V17.25C16.5647 16.2554 16.1681 15.3016 15.462 14.5983C14.756 13.8951 13.7985 13.5 12.8 13.5H9.78824Z" fill="#F3F3F3"/>
</g>
<defs>
<clipPath id="clip0_147_884">
<rect width="22.5882" height="24" fill="white"/>
</clipPath>
</defs>
</svg>
