<svg width="20" height="21" viewBox="0 0 20 21" fill="none" xmlns="http://www.w3.org/2000/svg">
<g id="search">
<path id="Shape" d="M10.8333 4.66663C8.08333 4.66663 5.83333 6.91663 5.83333 9.66663C5.83333 10.8333 6.25 11.9166 6.91667 12.75L3.75 15.9166L4.66667 16.8333L7.83333 13.6666C8.66667 14.3333 9.75 14.75 10.9167 14.75C13.6667 14.75 15.9167 12.5 15.9167 9.74996C15.9167 6.99996 13.5833 4.66663 10.8333 4.66663ZM10.8333 13.4166C8.75 13.4166 7.08333 11.75 7.08333 9.66663C7.08333 7.58329 8.75 5.91663 10.8333 5.91663C12.9167 5.91663 14.5833 7.58329 14.5833 9.66663C14.5833 11.75 12.9167 13.4166 10.8333 13.4166Z" fill="#1E1E1E"/>
</g>
</svg>
